<svg width="150" height="40" viewBox="0 0 150 40" fill="none" xmlns="http://www.w3.org/2000/svg" class="n-hopin-styleguide-c-components-card">
<rect width="150" height="40" rx="20" class="n-hopin-styleguide-c-components-card--fill"/>
<path d="M52.498 23.7285L54.1777 16.4336H56.4922L53.6113 27H51.6582L49.3926 19.7441L47.166 27H45.2129L42.3223 16.4336H44.6367L46.3457 23.6504L48.5137 16.4336H50.3008L52.498 23.7285ZM61.6035 27H59.2305V16.4336H61.6035V27ZM59.084 13.6895C59.084 13.3249 59.1979 13.0221 59.4258 12.7812C59.6602 12.5404 59.9922 12.4199 60.4219 12.4199C60.8516 12.4199 61.1836 12.5404 61.418 12.7812C61.6523 13.0221 61.7695 13.3249 61.7695 13.6895C61.7695 14.0475 61.6523 14.347 61.418 14.5879C61.1836 14.8223 60.8516 14.9395 60.4219 14.9395C59.9922 14.9395 59.6602 14.8223 59.4258 14.5879C59.1979 14.347 59.084 14.0475 59.084 13.6895ZM64.752 21.6387C64.752 20.0111 65.1296 18.7057 65.8848 17.7227C66.64 16.7331 67.6523 16.2383 68.9219 16.2383C70.0417 16.2383 70.9466 16.6289 71.6367 17.4102V12H74.0098V27H71.8613L71.7441 25.9062C71.0345 26.7656 70.0872 27.1953 68.9023 27.1953C67.6654 27.1953 66.6628 26.6973 65.8945 25.7012C65.1328 24.7051 64.752 23.3509 64.752 21.6387ZM67.125 21.8438C67.125 22.918 67.3301 23.7578 67.7402 24.3633C68.1569 24.9622 68.7461 25.2617 69.5078 25.2617C70.4779 25.2617 71.1875 24.8288 71.6367 23.9629V19.4512C71.2005 18.6048 70.4974 18.1816 69.5273 18.1816C68.7591 18.1816 68.1667 18.4876 67.75 19.0996C67.3333 19.7051 67.125 20.6198 67.125 21.8438ZM77.0703 21.6387C77.0703 19.998 77.4544 18.6895 78.2227 17.7129C78.9974 16.7298 80.0228 16.2383 81.2988 16.2383C82.5033 16.2383 83.4505 16.6582 84.1406 17.498L84.248 16.4336H86.3867V26.6777C86.3867 28.0645 85.9538 29.1582 85.0879 29.959C84.2285 30.7598 83.0664 31.1602 81.6016 31.1602C80.8268 31.1602 80.0684 30.9974 79.3262 30.6719C78.5905 30.3529 78.0306 29.9329 77.6465 29.4121L78.7695 27.9863C79.4987 28.8522 80.3971 29.2852 81.4648 29.2852C82.2526 29.2852 82.8743 29.0703 83.3301 28.6406C83.7858 28.2174 84.0137 27.5924 84.0137 26.7656V26.0527C83.3301 26.8145 82.4186 27.1953 81.2793 27.1953C80.0423 27.1953 79.0299 26.7038 78.2422 25.7207C77.4609 24.7376 77.0703 23.377 77.0703 21.6387ZM79.4336 21.8438C79.4336 22.9049 79.6484 23.7415 80.0781 24.3535C80.5143 24.959 81.1165 25.2617 81.8848 25.2617C82.8418 25.2617 83.5514 24.8516 84.0137 24.0312V19.3828C83.5645 18.582 82.8613 18.1816 81.9043 18.1816C81.123 18.1816 80.5143 18.4909 80.0781 19.1094C79.6484 19.7279 79.4336 20.6393 79.4336 21.8438ZM94.4863 27.1953C92.9824 27.1953 91.7617 26.7233 90.8242 25.7793C89.8932 24.8288 89.4277 23.5658 89.4277 21.9902V21.6973C89.4277 20.6426 89.6296 19.7018 90.0332 18.875C90.4434 18.0417 91.0163 17.3939 91.752 16.9316C92.4876 16.4694 93.3079 16.2383 94.2129 16.2383C95.6517 16.2383 96.7617 16.6973 97.543 17.6152C98.3307 18.5332 98.7246 19.832 98.7246 21.5117V22.4688H91.8203C91.8919 23.3411 92.1816 24.0312 92.6895 24.5391C93.2038 25.0469 93.8483 25.3008 94.623 25.3008C95.7103 25.3008 96.5957 24.8613 97.2793 23.9824L98.5586 25.2031C98.1354 25.8346 97.569 26.3262 96.8594 26.6777C96.1562 27.0228 95.3652 27.1953 94.4863 27.1953ZM94.2031 18.1426C93.5521 18.1426 93.0247 18.3704 92.6211 18.8262C92.224 19.2819 91.9701 19.9167 91.8594 20.7305H96.3809V20.5547C96.3288 19.7604 96.1172 19.1615 95.7461 18.7578C95.375 18.3477 94.8607 18.1426 94.2031 18.1426ZM104.549 13.8652V16.4336H106.414V18.1914H104.549V24.0898C104.549 24.4935 104.627 24.7865 104.783 24.9688C104.946 25.1445 105.232 25.2324 105.643 25.2324C105.916 25.2324 106.193 25.1999 106.473 25.1348V26.9707C105.932 27.1204 105.411 27.1953 104.91 27.1953C103.087 27.1953 102.176 26.1895 102.176 24.1777V18.1914H100.438V16.4336H102.176V13.8652H104.549Z" class="n-hopin-styleguide-c-components-card--detail"/>
</svg>
